<?xml version="1.0" encoding="utf-8"?>
<!-- Generator: Adobe Illustrator 22.1.0, SVG Export Plug-In . SVG Version: 6.00 Build 0)  -->
<svg version="1.1" id="Layer_1" xmlns="http://www.w3.org/2000/svg" xmlns:xlink="http://www.w3.org/1999/xlink" x="0px" y="0px"
	 viewBox="0 0 151.4 106.8" style="enable-background:new 0 0 151.4 106.8;" xml:space="preserve">
<style type="text/css">
	.st0{opacity:0.3;clip-path:url(#XMLID_11_);fill:#000000;enable-background:new    ;}
	.st1{fill:#000000;}
</style>
<g>
	<g id="XMLID_1_">
		<g id="XMLID_3_">
			<defs>
				<path id="XMLID_4_" d="M133.4,59c1.8-1.1,2.9-3,3-5.2c0-0.3,0-0.6,0-0.8c-0.1-9.5-3.7-16.3-9.1-20.9s-12.8-6.9-20.3-6.9
					c-7.4,0-14.8,2.3-20.2,6.9c-5.4,4.6-9,11.4-9.1,21c0,9.5,3.7,16.2,9.1,20.8s12.9,6.9,20.3,6.9c5.9,0,11.7-1.5,16.5-4.4
					c1.6-1,3-3.4,3-5.3c0,0,0,0,0,0C126.6,66,129.3,61.6,133.4,59z M92.3,53.1c0-19.7,29.7-19.9,29.7,0
					C121.9,72.7,92.3,72.6,92.3,53.1 M80.7,80.1c0.1-1.6-0.5-3.1-1.5-4.3c-5.1-5.9-8.5-13.2-8.5-22.6l0-0.1c0-5,0.9-9.6,2.6-13.6
					c0.9-2.1,0.2-5.2-1.5-6.8c-4.6-4.2-11.4-7.6-21.7-7.6c-18.6,0-29.5,13.2-29.4,29.2c0.1,15.2,9.5,26.9,28.4,26.8
					c4.9-0.1,9.5-1.1,13.1-4c1.1-0.9,2-0.4,2,1c-0.5,9.7-7,12.9-13.2,13c-4,0.1-8.7-2.2-10.9-4c-2.9-2.4-5.1-2.7-6.8-2.7
					c0,0-3.5-0.1-5.9,3.1c-2.4,3.3-2.1,7.8,0.7,10.7c3.7,3.9,12.7,8.5,23.4,8.4C51.4,106.8,79.3,108.1,80.7,80.1z M50.9,65.8
					c-6.4,0-13-3.7-13.1-11.5c-0.2-6.7,4.2-13.6,13-13.7C58,40.6,64,46.5,64,54C64.1,61.7,57.5,65.7,50.9,65.8 M19,73.6
					c0,0-1.7,7.7-9.2,7.7c-6,0-9.3-5.4-9.3-9.1l0-38.2c0-3.7,3-9.1,9.3-9.1c7,0,9,6.6,9,7.8c0,1.3-0.2,2.1-0.7,3.1
					c-3,5.1-4.4,10.9-4.3,17.4c0,6.8,1.7,12.5,4.4,17.4C18.7,71.5,19,72.6,19,73.6z"/>
			</defs>
			<use xlink:href="#XMLID_4_"  style="overflow:visible;fill:#000000;"/>
			<clipPath id="XMLID_11_">
				<use xlink:href="#XMLID_4_"  style="overflow:visible;"/>
			</clipPath>
			<path id="XMLID_10_" class="st0" d="M9.9-2L9.9-2L9.9-2L9.9-2C9.6-2,9.5-2,9.4-2c2.8,4.7,6.2,9.4,10.1,14
				c0.8-1.3,1.1-2.8,1.1-4.2c0,0,0,0,0-0.1C20.6,1.8,16.2-2,9.9-2C10-2,10-2,9.9-2"/>
		</g>
		<ellipse transform="matrix(0.8498 -0.527 0.527 0.8498 -16.383 85.533)" class="st1" cx="141.9" cy="71.5" rx="9.5" ry="9.5"/>
	</g>
	<ellipse transform="matrix(0.8615 -0.5078 0.5078 0.8615 -3.6405 6.2668)" class="st1" cx="9.7" cy="9.8" rx="9.7" ry="9.7"/>
</g>
</svg>
